<svg width="319" height="209" viewBox="0 0 319 209" fill="none" xmlns="http://www.w3.org/2000/svg">
<path fill-rule="evenodd" clip-rule="evenodd" d="M0 10C0 4.47716 4.47715 0 10 0H309C314.523 0 319 4.47715 319 10V114C307.954 114 299 122.954 299 134C299 145.046 307.954 154 319 154V199C319 204.523 314.523 209 309 209H10C4.47716 209 0 204.523 0 199V154C11.0457 154 20 145.046 20 134C20 122.954 11.0457 114 0 114V10Z" fill="#F8F8F8"/>
<path d="M19.91 135.909C19.9695 135.281 20 134.644 20 134C20 133.959 19.9998 133.919 19.9996 133.878H25.9962V135.909H19.91Z" fill="black" fill-opacity="0.2"/>
<path d="M299 133.878C299 133.919 299 133.959 299 134C299 134.644 299.03 135.281 299.09 135.909H292.78V133.878H299Z" fill="black" fill-opacity="0.2"/>
<path d="M37.9552 135.909V133.878H29.6825V135.909H37.9552Z" fill="black" fill-opacity="0.2"/>
<path d="M49.9142 135.909V133.878H41.6415V135.909H49.9142Z" fill="black" fill-opacity="0.2"/>
<path d="M61.8732 135.909V133.878H53.6005V135.909H61.8732Z" fill="black" fill-opacity="0.2"/>
<path d="M73.8322 135.909V133.878H65.5594V135.909H73.8322Z" fill="black" fill-opacity="0.2"/>
<path d="M85.7912 135.909V133.878H77.5184V135.909H85.7912Z" fill="black" fill-opacity="0.2"/>
<path d="M97.7501 135.909V133.878H89.4774V135.909H97.7501Z" fill="black" fill-opacity="0.2"/>
<path d="M109.709 135.909V133.878H101.436V135.909H109.709Z" fill="black" fill-opacity="0.2"/>
<path d="M121.668 135.909V133.878H113.395V135.909H121.668Z" fill="black" fill-opacity="0.2"/>
<path d="M133.627 135.909V133.878H125.354V135.909H133.627Z" fill="black" fill-opacity="0.2"/>
<path d="M145.586 135.909V133.878H137.313V135.909H145.586Z" fill="black" fill-opacity="0.2"/>
<path d="M157.545 135.909V133.878H149.272V135.909H157.545Z" fill="black" fill-opacity="0.2"/>
<path d="M169.504 135.909V133.878H161.231V135.909H169.504Z" fill="black" fill-opacity="0.2"/>
<path d="M181.463 135.909V133.878H173.19V135.909H181.463Z" fill="black" fill-opacity="0.2"/>
<path d="M193.422 135.909V133.878H185.149V135.909H193.422Z" fill="black" fill-opacity="0.2"/>
<path d="M205.381 135.909V133.878H197.108V135.909H205.381Z" fill="black" fill-opacity="0.2"/>
<path d="M217.34 135.909V133.878H209.067V135.909H217.34Z" fill="black" fill-opacity="0.2"/>
<path d="M229.299 135.909V133.878H221.026V135.909H229.299Z" fill="black" fill-opacity="0.2"/>
<path d="M241.258 135.909V133.878H232.985V135.909H241.258Z" fill="black" fill-opacity="0.2"/>
<path d="M253.217 135.909V133.878H244.944V135.909H253.217Z" fill="black" fill-opacity="0.2"/>
<path d="M265.176 135.909V133.878H256.903V135.909H265.176Z" fill="black" fill-opacity="0.2"/>
<path d="M277.135 135.909V133.878H268.862V135.909H277.135Z" fill="black" fill-opacity="0.2"/>
<path d="M289.094 135.909V133.878H280.821V135.909H289.094Z" fill="black" fill-opacity="0.2"/>
</svg>
