<svg width="319" height="191" viewBox="0 0 319 191" fill="none" xmlns="http://www.w3.org/2000/svg">
<mask id="mask0_35_2" style="mask-type:alpha" maskUnits="userSpaceOnUse" x="0" y="0" width="319" height="191">
<path d="M0 10C0 4.47715 4.47715 0 10 0H309C314.523 0 319 4.47715 319 10V95.0341C308.507 95.0341 300 102.96 300 112.737C300 122.513 308.507 130.439 319 130.439V181C319 186.523 314.523 191 309 191H10C4.47716 191 0 186.523 0 181V130.439C10.4934 130.439 19 122.513 19 112.737C19 102.96 10.4934 95.0341 0 95.0341V10Z" fill="#D9D9D9"/>
</mask>
<g mask="url(#mask0_35_2)">
<path d="M0 10C0 4.47715 4.47715 0 10 0H309C314.523 0 319 4.47715 319 10V95.0341C308.507 95.0341 300 102.96 300 112.737C300 122.513 308.507 130.439 319 130.439V181C319 186.523 314.523 191 309 191H10C4.47716 191 0 186.523 0 181V130.439C10.4934 130.439 19 122.513 19 112.737C19 102.96 10.4934 95.0341 0 95.0341V10Z" fill="#edeef0" fill-opacity="0.8"/>
<path d="M24.1399 112.595V114.5H18.2465V112.595H24.1399Z" fill="blue" fill-opacity="0.17"/>
<path d="M32.5247 112.595V114.5H26.6312V112.595H32.5247Z" fill="black" fill-opacity="0.17"/>
<path d="M40.9095 112.595V114.5H35.016V112.595H40.9095Z" fill="black" fill-opacity="0.17"/>
<path d="M49.2942 112.595V114.5H43.4008V112.595H49.2942Z" fill="black" fill-opacity="0.17"/>
<path d="M57.679 112.595V114.5H51.7855V112.595H57.679Z" fill="black" fill-opacity="0.17"/>
<path d="M66.0638 112.595V114.5H60.1703V112.595H66.0638Z" fill="black" fill-opacity="0.17"/>
<path d="M74.4485 112.595V114.5H68.5551V112.595H74.4485Z" fill="black" fill-opacity="0.17"/>
<path d="M82.8333 112.595V114.5H76.9398V112.595H82.8333Z" fill="black" fill-opacity="0.17"/>
<path d="M91.218 112.595V114.5H85.3246V112.595H91.218Z" fill="black" fill-opacity="0.17"/>
<path d="M99.6028 112.595V114.5H93.7094V112.595H99.6028Z" fill="black" fill-opacity="0.17"/>
<path d="M107.988 112.595V114.5H102.094V112.595H107.988Z" fill="black" fill-opacity="0.17"/>
<path d="M116.372 112.595V114.5H110.479V112.595H116.372Z" fill="black" fill-opacity="0.17"/>
<path d="M124.757 112.595V114.5H118.864V112.595H124.757Z" fill="black" fill-opacity="0.17"/>
<path d="M133.142 112.595V114.5H127.248V112.595H133.142Z" fill="black" fill-opacity="0.17"/>
<path d="M141.527 112.595V114.5H135.633V112.595H141.527Z" fill="black" fill-opacity="0.17"/>
<path d="M149.911 112.595V114.5H144.018V112.595H149.911Z" fill="black" fill-opacity="0.17"/>
<path d="M158.296 112.595V114.5H152.403V112.595H158.296Z" fill="black" fill-opacity="0.17"/>
<path d="M166.681 112.595V114.5H160.787V112.595H166.681Z" fill="black" fill-opacity="0.17"/>
<path d="M175.066 112.595V114.5H169.172V112.595H175.066Z" fill="black" fill-opacity="0.17"/>
<path d="M183.45 112.595V114.5H177.557V112.595H183.45Z" fill="black" fill-opacity="0.17"/>
<path d="M191.835 112.595V114.5H185.942V112.595H191.835Z" fill="black" fill-opacity="0.17"/>
<path d="M200.22 112.595V114.5H194.327V112.595H200.22Z" fill="black" fill-opacity="0.17"/>
<path d="M208.605 112.595V114.5H202.711V112.595H208.605Z" fill="black" fill-opacity="0.17"/>
<path d="M216.99 112.595V114.5H211.096V112.595H216.99Z" fill="black" fill-opacity="0.17"/>
<path d="M225.374 112.595V114.5H219.481V112.595H225.374Z" fill="black" fill-opacity="0.17"/>
<path d="M233.759 112.595V114.5H227.866V112.595H233.759Z" fill="black" fill-opacity="0.17"/>
<path d="M242.144 112.595V114.5H236.25V112.595H242.144Z" fill="black" fill-opacity="0.17"/>
<path d="M250.529 112.595V114.5H244.635V112.595H250.529Z" fill="black" fill-opacity="0.17"/>
<path d="M258.913 112.595V114.5H253.02V112.595H258.913Z" fill="black" fill-opacity="0.17"/>
<path d="M267.298 112.595V114.5H261.405V112.595H267.298Z" fill="black" fill-opacity="0.17"/>
<path d="M275.683 112.595V114.5H269.789V112.595H275.683Z" fill="black" fill-opacity="0.17"/>
<path d="M284.068 112.595V114.5H278.174V112.595H284.068Z" fill="black" fill-opacity="0.17"/>
<path d="M292.452 112.595V114.5H286.559V112.595H292.452Z" fill="black" fill-opacity="0.17"/>
<path d="M300.837 112.595V114.5H294.944V112.595H300.837Z" fill="black" fill-opacity="0.17"/>
</g>
</svg>
